 <svg  version="1.0" xmlns="http://www.w3.org/2000/svg"  width="300.000000pt" height="301.000000pt" viewBox="0 0 300.000000 301.000000"  preserveAspectRatio="xMidYMid meet">  <g transform="translate(0.000000,301.000000) scale(0.100000,-0.100000)" fill="#ffffff" stroke="none"> <path d="M0 1505 l0 -1505 1500 0 1500 0 0 1505 0 1505 -1500 0 -1500 0 0 -1505z m2890 10 l0 -1405 -1395 0 -1395 0 0 1405 0 1405 1395 0 1395 0 0 -1405z"/> <path d="M786 2748 c-14 -33 -386 -1108 -386 -1115 0 -2 52 -2 116 -1 l117 3 40 128 40 127 222 0 221 0 42 -130 43 -130 119 0 119 0 -70 203 c-38 111 -127 369 -197 572 l-128 370 -142 3 -143 3 -13 -33z m233 -438 c39 -118 71 -218 71 -223 0 -4 -70 -7 -155 -7 -85 0 -155 3 -155 6 0 10 140 436 147 447 10 17 21 -9 92 -223z"/> <path d="M2027 2773 c-4 -3 -7 -262 -7 -575 l0 -568 115 0 115 0 0 575 0 575 -108 0 c-60 0 -112 -3 -115 -7z"/> <path d="M2025 1410 c-213 -38 -353 -168 -411 -381 -25 -89 -25 -309 -1 -399 67 -252 248 -389 515 -390 211 0 351 79 427 241 14 30 25 62 25 71 0 12 -26 31 -80 58 -44 22 -83 40 -88 40 -5 0 -18 -24 -30 -53 -45 -109 -125 -160 -252 -160 -181 0 -282 106 -299 312 -25 307 78 471 296 471 30 0 74 -5 98 -11 52 -13 126 -74 145 -118 6 -16 17 -32 24 -34 9 -4 153 76 173 96 10 11 -30 81 -74 128 -78 83 -181 125 -331 133 -48 3 -109 1 -137 -4z"/> <path d="M530 826 l0 -576 254 0 c300 0 387 9 473 51 115 55 168 148 168 294 0 68 -4 89 -29 138 -31 64 -93 118 -158 139 -21 6 -38 15 -38 19 0 4 16 17 35 29 19 12 50 43 67 68 28 40 33 57 37 121 2 41 -2 92 -9 113 -16 54 -80 121 -143 149 -50 23 -61 24 -354 27 l-303 3 0 -575z m530 386 c87 -43 92 -184 8 -245 -22 -17 -48 -20 -167 -25 l-141 -5 0 147 0 146 133 0 c106 0 139 -4 167 -18z m61 -463 c56 -28 84 -90 76 -168 -7 -65 -29 -99 -83 -126 -33 -17 -64 -20 -196 -23 l-158 -4 0 171 0 171 160 0 c143 0 165 -2 201 -21z"/> </g> </svg> 