<?xml version="1.0" standalone="no"?>
<!DOCTYPE svg PUBLIC "-//W3C//DTD SVG 20010904//EN"
 "http://www.w3.org/TR/2001/REC-SVG-20010904/DTD/svg10.dtd">
<svg version="1.0" xmlns="http://www.w3.org/2000/svg"
 width="300.000000pt" height="322.000000pt" viewBox="0 0 300.000000 322.000000"
 preserveAspectRatio="xMidYMid meet">
<metadata>
Created by potrace 1.10, written by Peter Selinger 2001-2011
</metadata>
<g transform="translate(0.000000,322.000000) scale(0.100000,-0.100000)"
fill="#000000" stroke="none">
<path d="M1755 3110 l-110 -110 43 0 42 0 0 -465 0 -465 -350 0 -350 0 0 -130
0 -130 -195 0 -195 0 0 -400 0 -400 119 0 119 0 6 72 c4 40 4 162 1 271 -3
109 -3 207 0 218 6 18 17 19 191 19 l184 0 0 114 c0 89 3 116 15 126 12 10 91
11 365 5 l350 -7 0 586 0 586 40 0 c22 0 40 3 40 8 0 4 -46 53 -103 110 l-102
102 -110 -110z"/>
<path d="M1475 1578 c-3 -7 -6 -299 -8 -648 l-2 -635 -412 -3 -413 -2 0 -105
0 -105 538 2 537 3 3 212 2 213 523 2 522 3 3 532 2 533 -22 5 c-33 8 -737 -1
-746 -10 -4 -3 -8 -158 -8 -343 -1 -186 -2 -374 -3 -419 l-1 -83 -135 0 -135
0 -2 428 -3 427 -118 3 c-88 2 -119 -1 -122 -10z m1043 -540 l-3 -303 -137 -3
-138 -3 0 306 0 305 140 0 140 0 -2 -302z"/>
<path d="M1037 1333 c-4 -3 -7 -78 -7 -165 l0 -158 115 0 115 0 0 159 c0 136
-2 160 -16 165 -21 8 -199 8 -207 -1z"/>
<path d="M640 635 l0 -155 119 0 c99 0 120 3 125 16 8 20 8 258 0 278 -5 13
-26 16 -125 16 l-119 0 0 -155z"/>
<path d="M1030 635 l0 -155 115 0 115 0 0 155 0 155 -115 0 -115 0 0 -155z"/>
</g>
</svg>
