 <svg  version="1.0" xmlns="http://www.w3.org/2000/svg"  width="300.000000pt" height="169.000000pt" viewBox="0 0 300.000000 169.000000"  preserveAspectRatio="xMidYMid meet">  <g transform="translate(0.000000,169.000000) scale(0.100000,-0.100000)" fill="#00bfff" stroke="none"> <path d="M1040 855 l0 -455 460 0 460 0 0 455 0 455 -460 0 -460 0 0 -455z m890 0 l0 -425 -430 0 -430 0 0 425 0 425 430 0 430 0 0 -425z"/> <path d="M1257 1068 c-25 -73 -48 -140 -52 -149 -5 -13 0 -15 24 -11 24 3 33 11 41 38 11 34 12 34 70 34 l59 0 7 -35 c6 -31 10 -35 39 -35 l32 0 -51 145 -51 145 -36 0 -35 0 -47 -132z m100 30 c7 -24 15 -51 18 -60 6 -16 1 -18 -37 -18 l-45 0 21 60 c12 33 23 60 26 60 3 0 11 -19 17 -42z"/> <path d="M1650 1198 c0 -2 -2 -67 -3 -146 l-2 -142 28 0 27 0 0 145 0 145 -25 0 c-14 0 -25 -1 -25 -2z"/> <path d="M1242 665 l3 -148 90 2 c76 2 94 6 113 23 40 39 21 128 -28 128 -9 0 -6 8 8 23 28 29 28 68 2 92 -16 14 -42 20 -106 23 l-85 5 3 -148z m143 92 c13 -10 16 -21 11 -40 -6 -24 -11 -27 -51 -27 l-45 0 0 40 c0 39 1 40 33 40 18 0 41 -6 52 -13z m19 -123 c39 -38 11 -74 -56 -74 l-48 0 0 45 0 45 44 0 c27 0 51 -6 60 -16z"/> <path d="M1635 800 c-83 -34 -107 -177 -42 -248 49 -53 147 -53 191 -1 32 38 32 43 1 57 -20 9 -25 9 -25 -2 0 -43 -80 -60 -121 -27 -20 16 -24 28 -24 79 0 45 5 65 19 81 25 28 82 28 112 0 19 -17 25 -19 42 -8 61 38 -78 101 -153 69z"/> </g> </svg> 