 <svg  version="1.0" xmlns="http://www.w3.org/2000/svg"  width="300.000000pt" height="303.000000pt" viewBox="0 0 300.000000 303.000000"  preserveAspectRatio="xMidYMid meet">  <g transform="translate(0.000000,303.000000) scale(0.100000,-0.100000)" fill="#ffffff" stroke="none"> <path d="M40 2833 l0 -147 165 -165 165 -166 0 148 0 147 1122 0 1121 0 -6 -97 c-4 -54 -7 -286 -7 -515 l0 -418 -95 0 -95 0 0 347 0 348 -166 -166 -165 -165 -2 -180 -2 -179 -317 -3 -318 -2 0 -165 0 -165 750 0 750 0 0 845 0 845 -1450 0 -1450 0 0 -147z"/> <path d="M832 2437 c-50 -51 -92 -97 -92 -102 0 -6 43 -53 95 -105 l95 -95 100 100 100 100 -97 97 c-54 54 -100 98 -103 98 -3 0 -47 -42 -98 -93z"/> <path d="M1487 2422 l-97 -97 98 -98 97 -97 98 98 97 97 -98 98 -97 97 -98 -98z"/> <path d="M42 1205 l3 -1120 1445 0 1445 0 2 502 2 503 -509 0 -510 0 0 -340 0 -340 -770 0 -770 0 0 440 0 441 345 -3 345 -3 0 168 0 167 -345 0 -345 0 0 183 0 182 -170 170 -170 170 2 -1120z m2558 -620 l0 -175 -170 0 -170 0 0 175 0 175 170 0 170 0 0 -175z"/> <path d="M1167 2152 l-97 -97 98 -98 97 -97 100 100 100 100 -95 95 c-52 52 -97 95 -100 95 -3 0 -49 -44 -103 -98z"/> </g> </svg> 